<?xml version="1.0" encoding="UTF-8" standalone="no"?>
<!DOCTYPE svg PUBLIC "-//W3C//DTD SVG 1.1//EN"
 "http://www.w3.org/Graphics/SVG/1.1/DTD/svg11.dtd">
<!-- Generated by graphviz version 16.1.0 (20260904.0139)
 -->
<!-- Title: ERD Pages: 1 -->
<svg width="1125pt" height="470pt"
 viewBox="0.00 0.00 1125.00 470.00" xmlns="http://www.w3.org/2000/svg" xmlns:xlink="http://www.w3.org/1999/xlink">
<g id="graph0" class="graph" transform="scale(1 1) rotate(0) translate(18 452.48)">
<title>ERD</title>
<polygon fill="white" stroke="none" points="-18,18 -18,-452.48 1106.55,-452.48 1106.55,18 -18,18"/>
<text xml:space="preserve" text-anchor="middle" x="111.88" y="-413.38" font-family="Arial" font-size="18.00" fill="#24334b">Core relational data model</text>
<!-- users -->
<g id="node1" class="node">
<title>users</title>
<path fill="#f0eafa" stroke="#b9c3d1" stroke-width="1.3" d="M855.17,-405.48C855.17,-405.48 680.88,-405.48 680.88,-405.48 674.88,-405.48 668.88,-399.48 668.88,-393.48 668.88,-393.48 668.88,-340.32 668.88,-340.32 668.88,-334.32 674.88,-328.32 680.88,-328.32 680.88,-328.32 855.17,-328.32 855.17,-328.32 861.17,-328.32 867.17,-334.32 867.17,-340.32 867.17,-340.32 867.17,-393.48 867.17,-393.48 867.17,-399.48 861.17,-405.48 855.17,-405.48"/>
<text xml:space="preserve" text-anchor="middle" x="768.02" y="-384" font-family="Arial" font-size="12.00" fill="#24334b">USERS</text>
<text xml:space="preserve" text-anchor="middle" x="768.02" y="-369.75" font-family="Arial" font-size="12.00" fill="#24334b">PK id · UK username</text>
<text xml:space="preserve" text-anchor="middle" x="768.02" y="-355.5" font-family="Arial" font-size="12.00" fill="#24334b">display_name · password_hash</text>
<text xml:space="preserve" text-anchor="middle" x="768.02" y="-341.25" font-family="Arial" font-size="12.00" fill="#24334b">role · enabled · created_at</text>
</g>
<!-- transactions -->
<g id="node5" class="node">
<title>transactions</title>
<path fill="#e7f3ed" stroke="#b9c3d1" stroke-width="1.3" d="M838.05,-98.53C838.05,-98.53 648,-98.53 648,-98.53 642,-98.53 636,-92.53 636,-86.53 636,-86.53 636,-19.12 636,-19.12 636,-13.12 642,-7.12 648,-7.12 648,-7.12 838.05,-7.12 838.05,-7.12 844.05,-7.12 850.05,-13.12 850.05,-19.12 850.05,-19.12 850.05,-86.53 850.05,-86.53 850.05,-92.53 844.05,-98.53 838.05,-98.53"/>
<text xml:space="preserve" text-anchor="middle" x="743.02" y="-77.05" font-family="Arial" font-size="12.00" fill="#24334b">INVENTORY_TRANSACTIONS</text>
<text xml:space="preserve" text-anchor="middle" x="743.02" y="-62.8" font-family="Arial" font-size="12.00" fill="#24334b">PK id · FK product_id · FK actor_id</text>
<text xml:space="preserve" text-anchor="middle" x="743.02" y="-48.55" font-family="Arial" font-size="12.00" fill="#24334b">UK(actor_id, idempotency_key)</text>
<text xml:space="preserve" text-anchor="middle" x="743.02" y="-34.3" font-family="Arial" font-size="12.00" fill="#24334b">type · delta · quantity_before</text>
<text xml:space="preserve" text-anchor="middle" x="743.02" y="-20.05" font-family="Arial" font-size="12.00" fill="#24334b">quantity_after · reason · created_at</text>
</g>
<!-- users&#45;&gt;transactions -->
<g id="edge4" class="edge">
<title>users&#45;&gt;transactions</title>
<path fill="none" stroke="#8491a4" stroke-width="1.15" d="M764.98,-327.95C760.57,-272.87 752.37,-170.53 747.34,-107.68"/>
<polygon fill="#8491a4" stroke="#8491a4" stroke-width="1.15" points="749.79,-107.6 746.79,-100.82 744.91,-107.99 749.79,-107.6"/>
<text xml:space="preserve" text-anchor="middle" x="770.14" y="-213.69" font-family="Arial" font-size="9.00" fill="#59677b">actor</text>
</g>
<!-- warnings -->
<g id="node6" class="node">
<title>warnings</title>
<path fill="#fff0e9" stroke="#b9c3d1" stroke-width="1.3" d="M534.8,-105.66C534.8,-105.66 349.25,-105.66 349.25,-105.66 343.25,-105.66 337.25,-99.66 337.25,-93.66 337.25,-93.66 337.25,-12 337.25,-12 337.25,-6 343.25,0 349.25,0 349.25,0 534.8,0 534.8,0 540.8,0 546.8,-6 546.8,-12 546.8,-12 546.8,-93.66 546.8,-93.66 546.8,-99.66 540.8,-105.66 534.8,-105.66"/>
<text xml:space="preserve" text-anchor="middle" x="442.02" y="-84.18" font-family="Arial" font-size="12.00" fill="#24334b">WARNINGS</text>
<text xml:space="preserve" text-anchor="middle" x="442.02" y="-69.93" font-family="Arial" font-size="12.00" fill="#24334b">PK id · FK product_id</text>
<text xml:space="preserve" text-anchor="middle" x="442.02" y="-55.68" font-family="Arial" font-size="12.00" fill="#24334b">FK acknowledged_by (nullable)</text>
<text xml:space="preserve" text-anchor="middle" x="442.02" y="-41.43" font-family="Arial" font-size="12.00" fill="#24334b">type · state · observed_quantity</text>
<text xml:space="preserve" text-anchor="middle" x="442.02" y="-27.18" font-family="Arial" font-size="12.00" fill="#24334b">threshold · created_at · expires_at</text>
<text xml:space="preserve" text-anchor="middle" x="442.02" y="-12.93" font-family="Arial" font-size="12.00" fill="#24334b">acknowledged_at</text>
</g>
<!-- users&#45;&gt;warnings -->
<g id="edge6" class="edge">
<title>users&#45;&gt;warnings</title>
<path fill="none" stroke="#8491a4" stroke-width="1.15" d="M729.89,-327.93C702.91,-301.07 671.52,-269.82 671.52,-269.82 671.52,-269.82 592.02,-129.66 592.02,-129.66 592.02,-129.66 575.53,-121.32 553.47,-110.17"/>
<polygon fill="#8491a4" stroke="#8491a4" stroke-width="1.15" points="554.7,-108.05 547.35,-107.08 552.49,-112.42 554.7,-108.05"/>
<text xml:space="preserve" text-anchor="middle" x="706.77" y="-213.69" font-family="Arial" font-size="9.00" fill="#59677b">optional reviewer</text>
</g>
<!-- products -->
<g id="node2" class="node">
<title>products</title>
<path fill="#e7f3ed" stroke="#b9c3d1" stroke-width="1.3" d="M504.55,-269.82C504.55,-269.82 329.5,-269.82 329.5,-269.82 323.5,-269.82 317.5,-263.82 317.5,-257.82 317.5,-257.82 317.5,-176.16 317.5,-176.16 317.5,-170.16 323.5,-164.16 329.5,-164.16 329.5,-164.16 504.55,-164.16 504.55,-164.16 510.55,-164.16 516.55,-170.16 516.55,-176.16 516.55,-176.16 516.55,-257.82 516.55,-257.82 516.55,-263.82 510.55,-269.82 504.55,-269.82"/>
<text xml:space="preserve" text-anchor="middle" x="417.02" y="-248.34" font-family="Arial" font-size="12.00" fill="#24334b">PRODUCTS</text>
<text xml:space="preserve" text-anchor="middle" x="417.02" y="-234.09" font-family="Arial" font-size="12.00" fill="#24334b">PK id · UK sku · UK barcode</text>
<text xml:space="preserve" text-anchor="middle" x="417.02" y="-219.84" font-family="Arial" font-size="12.00" fill="#24334b">name · unit · price · quantity</text>
<text xml:space="preserve" text-anchor="middle" x="417.02" y="-205.59" font-family="Arial" font-size="12.00" fill="#24334b">safety_stock · reorder_threshold</text>
<text xml:space="preserve" text-anchor="middle" x="417.02" y="-191.34" font-family="Arial" font-size="12.00" fill="#24334b">FK category_id · FK supplier_id</text>
<text xml:space="preserve" text-anchor="middle" x="417.02" y="-177.09" font-family="Arial" font-size="12.00" fill="#24334b">active · version · updated_at</text>
</g>
<!-- products&#45;&gt;transactions -->
<g id="edge3" class="edge">
<title>products&#45;&gt;transactions</title>
<path fill="none" stroke="#8491a4" stroke-width="1.15" d="M517.05,-166.23C557.49,-146.12 604.05,-122.96 644.35,-102.91"/>
<polygon fill="#8491a4" stroke="#8491a4" stroke-width="1.15" points="645.33,-105.16 650.5,-99.85 643.14,-100.78 645.33,-105.16"/>
<text xml:space="preserve" text-anchor="middle" x="617.55" y="-131.61" font-family="Arial" font-size="9.00" fill="#59677b">one audit trail</text>
</g>
<!-- products&#45;&gt;warnings -->
<g id="edge5" class="edge">
<title>products&#45;&gt;warnings</title>
<path fill="none" stroke="#8491a4" stroke-width="1.15" d="M413.75,-163.74C412.93,-150.6 412.27,-140.16 412.27,-140.16 412.27,-140.16 412.27,-129.66 412.27,-129.66 412.27,-129.66 414.83,-123.16 418.43,-113.96"/>
<polygon fill="#8491a4" stroke="#8491a4" stroke-width="1.15" points="420.61,-115.11 420.89,-107.7 416.05,-113.32 420.61,-115.11"/>
<text xml:space="preserve" text-anchor="middle" x="448.65" y="-131.61" font-family="Arial" font-size="9.00" fill="#59677b">warning episodes</text>
</g>
<!-- categories -->
<g id="node3" class="node">
<title>categories</title>
<path fill="#e8eefb" stroke="#b9c3d1" stroke-width="1.3" d="M346.3,-398.35C346.3,-398.35 241.75,-398.35 241.75,-398.35 235.75,-398.35 229.75,-392.35 229.75,-386.35 229.75,-386.35 229.75,-347.44 229.75,-347.44 229.75,-341.44 235.75,-335.44 241.75,-335.44 241.75,-335.44 346.3,-335.44 346.3,-335.44 352.3,-335.44 358.3,-341.44 358.3,-347.44 358.3,-347.44 358.3,-386.35 358.3,-386.35 358.3,-392.35 352.3,-398.35 346.3,-398.35"/>
<text xml:space="preserve" text-anchor="middle" x="294.02" y="-376.88" font-family="Arial" font-size="12.00" fill="#24334b">CATEGORIES</text>
<text xml:space="preserve" text-anchor="middle" x="294.02" y="-362.62" font-family="Arial" font-size="12.00" fill="#24334b">PK id · UK name</text>
<text xml:space="preserve" text-anchor="middle" x="294.02" y="-348.38" font-family="Arial" font-size="12.00" fill="#24334b">description · active</text>
</g>
<!-- categories&#45;&gt;products -->
<g id="edge1" class="edge">
<title>categories&#45;&gt;products</title>
<path fill="none" stroke="#8491a4" stroke-width="1.15" d="M319.81,-334.89C333.8,-318.07 351.56,-296.72 368.06,-276.87"/>
<polygon fill="#8491a4" stroke="#8491a4" stroke-width="1.15" points="369.89,-278.5 372.49,-271.55 366.13,-275.37 369.89,-278.5"/>
<text xml:space="preserve" text-anchor="middle" x="371.71" y="-295.77" font-family="Arial" font-size="9.00" fill="#59677b">1 to many</text>
</g>
<!-- suppliers -->
<g id="node4" class="node">
<title>suppliers</title>
<path fill="#e8eefb" stroke="#b9c3d1" stroke-width="1.3" d="M617.3,-398.35C617.3,-398.35 410.75,-398.35 410.75,-398.35 404.75,-398.35 398.75,-392.35 398.75,-386.35 398.75,-386.35 398.75,-347.44 398.75,-347.44 398.75,-341.44 404.75,-335.44 410.75,-335.44 410.75,-335.44 617.3,-335.44 617.3,-335.44 623.3,-335.44 629.3,-341.44 629.3,-347.44 629.3,-347.44 629.3,-386.35 629.3,-386.35 629.3,-392.35 623.3,-398.35 617.3,-398.35"/>
<text xml:space="preserve" text-anchor="middle" x="514.02" y="-376.88" font-family="Arial" font-size="12.00" fill="#24334b">SUPPLIERS</text>
<text xml:space="preserve" text-anchor="middle" x="514.02" y="-362.62" font-family="Arial" font-size="12.00" fill="#24334b">PK id</text>
<text xml:space="preserve" text-anchor="middle" x="514.02" y="-348.38" font-family="Arial" font-size="12.00" fill="#24334b">name · contact · email · phone · active</text>
</g>
<!-- suppliers&#45;&gt;products -->
<g id="edge2" class="edge">
<title>suppliers&#45;&gt;products</title>
<path fill="none" stroke="#8491a4" stroke-width="1.15" d="M493.69,-334.89C482.76,-318.22 468.9,-297.09 455.98,-277.39"/>
<polygon fill="#8491a4" stroke="#8491a4" stroke-width="1.15" points="458.11,-276.18 452.23,-271.67 454.02,-278.86 458.11,-276.18"/>
<text xml:space="preserve" text-anchor="middle" x="503.21" y="-295.77" font-family="Arial" font-size="9.00" fill="#59677b">0..1 per product</text>
</g>
<!-- settings -->
<g id="node7" class="node">
<title>settings</title>
<path fill="#f4f6f9" stroke="#b9c3d1" stroke-width="1.3" d="M178.05,-391.23C178.05,-391.23 12,-391.23 12,-391.23 6,-391.23 0,-385.23 0,-379.23 0,-379.23 0,-354.57 0,-354.57 0,-348.57 6,-342.57 12,-342.57 12,-342.57 178.05,-342.57 178.05,-342.57 184.05,-342.57 190.05,-348.57 190.05,-354.57 190.05,-354.57 190.05,-379.23 190.05,-379.23 190.05,-385.23 184.05,-391.23 178.05,-391.23"/>
<text xml:space="preserve" text-anchor="middle" x="95.03" y="-369.75" font-family="Arial" font-size="12.00" fill="#24334b">APP_SETTINGS</text>
<text xml:space="preserve" text-anchor="middle" x="95.03" y="-355.5" font-family="Arial" font-size="12.00" fill="#24334b">PK setting_key · setting_value</text>
</g>
<!-- settings&#45;&gt;products -->
<!-- revision -->
<g id="node8" class="node">
<title>revision</title>
<path fill="#fff3dc" stroke="#b9c3d1" stroke-width="1.3" d="M1076.55,-398.35C1076.55,-398.35 919.5,-398.35 919.5,-398.35 913.5,-398.35 907.5,-392.35 907.5,-386.35 907.5,-386.35 907.5,-347.44 907.5,-347.44 907.5,-341.44 913.5,-335.44 919.5,-335.44 919.5,-335.44 1076.55,-335.44 1076.55,-335.44 1082.55,-335.44 1088.55,-341.44 1088.55,-347.44 1088.55,-347.44 1088.55,-386.35 1088.55,-386.35 1088.55,-392.35 1082.55,-398.35 1076.55,-398.35"/>
<text xml:space="preserve" text-anchor="middle" x="998.02" y="-376.88" font-family="Arial" font-size="12.00" fill="#24334b">CACHE_REVISION</text>
<text xml:space="preserve" text-anchor="middle" x="998.02" y="-362.62" font-family="Arial" font-size="12.00" fill="#24334b">PK id · revision</text>
<text xml:space="preserve" text-anchor="middle" x="998.02" y="-348.38" font-family="Arial" font-size="12.00" fill="#24334b">monotonic invalidation token</text>
</g>
<!-- revision&#45;&gt;warnings -->
<g id="edge8" class="edge">
<title>revision&#45;&gt;warnings</title>
<path fill="none" stroke="#8491a4" stroke-width="1.15" stroke-dasharray="5,2" d="M965.98,-334.82C907.64,-278.23 790.02,-164.16 790.02,-164.16 790.02,-164.16 657.1,-122.02 555.56,-89.82"/>
<polygon fill="#8491a4" stroke="#8491a4" stroke-width="1.15" points="556.45,-87.54 549.04,-87.76 554.97,-92.21 556.45,-87.54"/>
<text xml:space="preserve" text-anchor="middle" x="920.37" y="-213.69" font-family="Arial" font-size="9.00" fill="#59677b">cache keys</text>
</g>
</g>
</svg>
