<?xml version="1.0" encoding="UTF-8" standalone="no"?>
<!DOCTYPE svg PUBLIC "-//W3C//DTD SVG 1.1//EN"
 "http://www.w3.org/Graphics/SVG/1.1/DTD/svg11.dtd">
<!-- Generated by graphviz version 16.1.0 (20260904.0139)
 -->
<!-- Title: StockWorkflow Pages: 1 -->
<svg width="459pt" height="928pt"
 viewBox="0.00 0.00 459.00 928.00" xmlns="http://www.w3.org/2000/svg" xmlns:xlink="http://www.w3.org/1999/xlink">
<g id="graph0" class="graph" transform="scale(1 1) rotate(0) translate(18 909.69)">
<title>StockWorkflow</title>
<polygon fill="white" stroke="none" points="-18,18 -18,-909.69 440.5,-909.69 440.5,18 -18,18"/>
<text xml:space="preserve" text-anchor="middle" x="211.25" y="-870.59" font-family="Arial" font-size="18.00" fill="#24334b">Stock movement: transaction and warning workflow</text>
<!-- submit -->
<g id="node1" class="node">
<title>submit</title>
<path fill="#e8eefb" stroke="#b9c3d1" stroke-width="1.3" d="M290.7,-862.69C290.7,-862.69 149.4,-862.69 149.4,-862.69 143.4,-862.69 137.4,-856.69 137.4,-850.69 137.4,-850.69 137.4,-811.78 137.4,-811.78 137.4,-805.78 143.4,-799.78 149.4,-799.78 149.4,-799.78 290.7,-799.78 290.7,-799.78 296.7,-799.78 302.7,-805.78 302.7,-811.78 302.7,-811.78 302.7,-850.69 302.7,-850.69 302.7,-856.69 296.7,-862.69 290.7,-862.69"/>
<text xml:space="preserve" text-anchor="middle" x="220.05" y="-841.21" font-family="Arial" font-size="12.00" fill="#24334b">1 · CLERK SUBMITS</text>
<text xml:space="preserve" text-anchor="middle" x="220.05" y="-826.96" font-family="Arial" font-size="12.00" fill="#24334b">product · type · quantity</text>
<text xml:space="preserve" text-anchor="middle" x="220.05" y="-812.71" font-family="Arial" font-size="12.00" fill="#24334b">reason · idempotency key</text>
</g>
<!-- validate -->
<g id="node2" class="node">
<title>validate</title>
<path fill="#f0eafa" stroke="#b9c3d1" stroke-width="1.3" d="M286.95,-758.78C286.95,-758.78 153.15,-758.78 153.15,-758.78 147.15,-758.78 141.15,-752.78 141.15,-746.78 141.15,-746.78 141.15,-707.87 141.15,-707.87 141.15,-701.87 147.15,-695.87 153.15,-695.87 153.15,-695.87 286.95,-695.87 286.95,-695.87 292.95,-695.87 298.95,-701.87 298.95,-707.87 298.95,-707.87 298.95,-746.78 298.95,-746.78 298.95,-752.78 292.95,-758.78 286.95,-758.78"/>
<text xml:space="preserve" text-anchor="middle" x="220.05" y="-737.3" font-family="Arial" font-size="12.00" fill="#24334b">2 · VALIDATE</text>
<text xml:space="preserve" text-anchor="middle" x="220.05" y="-723.05" font-family="Arial" font-size="12.00" fill="#24334b">role · fields · key replay</text>
<text xml:space="preserve" text-anchor="middle" x="220.05" y="-708.8" font-family="Arial" font-size="12.00" fill="#24334b">normalize count vs delta</text>
</g>
<!-- submit&#45;&gt;validate -->
<g id="edge1" class="edge">
<title>submit&#45;&gt;validate</title>
<path fill="none" stroke="#8491a4" stroke-width="1.15" d="M220.05,-799.38C220.05,-789.5 220.05,-778.41 220.05,-767.98"/>
<polygon fill="#8491a4" stroke="#8491a4" stroke-width="1.15" points="222.5,-768.17 220.05,-761.17 217.6,-768.17 222.5,-768.17"/>
</g>
<!-- lock -->
<g id="node3" class="node">
<title>lock</title>
<path fill="#e7f3ed" stroke="#b9c3d1" stroke-width="1.3" d="M293.7,-654.87C293.7,-654.87 146.4,-654.87 146.4,-654.87 140.4,-654.87 134.4,-648.87 134.4,-642.87 134.4,-642.87 134.4,-603.96 134.4,-603.96 134.4,-597.96 140.4,-591.96 146.4,-591.96 146.4,-591.96 293.7,-591.96 293.7,-591.96 299.7,-591.96 305.7,-597.96 305.7,-603.96 305.7,-603.96 305.7,-642.87 305.7,-642.87 305.7,-648.87 299.7,-654.87 293.7,-654.87"/>
<text xml:space="preserve" text-anchor="middle" x="220.05" y="-633.39" font-family="Arial" font-size="12.00" fill="#24334b">3 · LOCK PRODUCT</text>
<text xml:space="preserve" text-anchor="middle" x="220.05" y="-619.14" font-family="Arial" font-size="12.00" fill="#24334b">SELECT … FOR UPDATE</text>
<text xml:space="preserve" text-anchor="middle" x="220.05" y="-604.89" font-family="Arial" font-size="12.00" fill="#24334b">serialize stock changes</text>
</g>
<!-- validate&#45;&gt;lock -->
<g id="edge2" class="edge">
<title>validate&#45;&gt;lock</title>
<path fill="none" stroke="#8491a4" stroke-width="1.15" d="M220.05,-695.47C220.05,-685.59 220.05,-674.5 220.05,-664.07"/>
<polygon fill="#8491a4" stroke="#8491a4" stroke-width="1.15" points="222.5,-664.26 220.05,-657.26 217.6,-664.26 222.5,-664.26"/>
</g>
<!-- boundary -->
<g id="node4" class="node">
<title>boundary</title>
<path fill="#fff3dc" stroke="#b9c3d1" stroke-width="1.3" d="M208.99,-546.31C208.99,-546.31 81.56,-492.7 81.56,-492.7 76.03,-490.38 76.03,-485.72 81.56,-483.4 81.56,-483.4 208.99,-429.79 208.99,-429.79 214.52,-427.47 225.58,-427.47 231.11,-429.79 231.11,-429.79 358.54,-483.4 358.54,-483.4 364.07,-485.72 364.07,-490.38 358.54,-492.7 358.54,-492.7 231.11,-546.31 231.11,-546.31 225.58,-548.63 214.52,-548.63 208.99,-546.31"/>
<text xml:space="preserve" text-anchor="middle" x="220.05" y="-498.02" font-family="Arial" font-size="12.00" fill="#24334b">4 · CHECK BALANCE</text>
<text xml:space="preserve" text-anchor="middle" x="220.05" y="-483.77" font-family="Arial" font-size="12.00" fill="#24334b">0 ≤ new quantity</text>
<text xml:space="preserve" text-anchor="middle" x="220.05" y="-469.52" font-family="Arial" font-size="12.00" fill="#24334b">≤ 1,000,000,000</text>
</g>
<!-- lock&#45;&gt;boundary -->
<g id="edge3" class="edge">
<title>lock&#45;&gt;boundary</title>
<path fill="none" stroke="#8491a4" stroke-width="1.15" d="M220.05,-591.48C220.05,-581.98 220.05,-571.1 220.05,-560.06"/>
<polygon fill="#8491a4" stroke="#8491a4" stroke-width="1.15" points="222.5,-560.35 220.05,-553.35 217.6,-560.35 222.5,-560.35"/>
</g>
<!-- commit -->
<g id="node5" class="node">
<title>commit</title>
<path fill="#e7f3ed" stroke="#b9c3d1" stroke-width="1.3" d="M225.45,-374.64C225.45,-374.64 76.65,-374.64 76.65,-374.64 70.65,-374.64 64.65,-368.64 64.65,-362.64 64.65,-362.64 64.65,-323.73 64.65,-323.73 64.65,-317.73 70.65,-311.73 76.65,-311.73 76.65,-311.73 225.45,-311.73 225.45,-311.73 231.45,-311.73 237.45,-317.73 237.45,-323.73 237.45,-323.73 237.45,-362.64 237.45,-362.64 237.45,-368.64 231.45,-374.64 225.45,-374.64"/>
<text xml:space="preserve" text-anchor="middle" x="151.05" y="-353.16" font-family="Arial" font-size="12.00" fill="#24334b">5 · COMMIT ATOMICALLY</text>
<text xml:space="preserve" text-anchor="middle" x="151.05" y="-338.91" font-family="Arial" font-size="12.00" fill="#24334b">quantity + before/delta/after</text>
<text xml:space="preserve" text-anchor="middle" x="151.05" y="-324.66" font-family="Arial" font-size="12.00" fill="#24334b">actor + reason + time</text>
</g>
<!-- boundary&#45;&gt;commit -->
<g id="edge4" class="edge">
<title>boundary&#45;&gt;commit</title>
<path fill="none" stroke="#8491a4" stroke-width="1.15" d="M194.94,-435.07C186.6,-417.79 177.46,-398.87 169.69,-382.79"/>
<polygon fill="#8491a4" stroke="#8491a4" stroke-width="1.15" points="172.01,-381.94 166.76,-376.71 167.59,-384.07 172.01,-381.94"/>
<text xml:space="preserve" text-anchor="middle" x="189.12" y="-396.59" font-family="Arial" font-size="9.00" fill="#59677b">valid</text>
</g>
<!-- response -->
<g id="node8" class="node">
<title>response</title>
<path fill="#f4f6f9" stroke="#b9c3d1" stroke-width="1.3" d="M304.07,-62.91C304.07,-62.91 132.02,-62.91 132.02,-62.91 126.02,-62.91 120.02,-56.91 120.02,-50.91 120.02,-50.91 120.02,-12 120.02,-12 120.02,-6 126.02,0 132.02,0 132.02,0 304.07,0 304.07,0 310.07,0 316.07,-6 316.07,-12 316.07,-12 316.07,-50.91 316.07,-50.91 316.07,-56.91 310.07,-62.91 304.07,-62.91"/>
<text xml:space="preserve" text-anchor="middle" x="218.05" y="-41.43" font-family="Arial" font-size="12.00" fill="#24334b">8 · READ / RESPOND</text>
<text xml:space="preserve" text-anchor="middle" x="218.05" y="-27.18" font-family="Arial" font-size="12.00" fill="#24334b">Redis cache or MySQL fallback</text>
<text xml:space="preserve" text-anchor="middle" x="218.05" y="-12.93" font-family="Arial" font-size="12.00" fill="#24334b">return transaction and warnings</text>
</g>
<!-- boundary&#45;&gt;response -->
<g id="edge5" class="edge">
<title>boundary&#45;&gt;response</title>
<path fill="none" stroke="#8491a4" stroke-width="1.15" stroke-dasharray="5,2" d="M243.88,-434.66C262.44,-393.89 285.05,-344.18 285.05,-344.18 285.05,-344.18 285.05,-344.18 285.05,-134.37 285.05,-134.37 262.11,-99.47 243.07,-70.52"/>
<polygon fill="#8491a4" stroke="#8491a4" stroke-width="1.15" points="245.18,-69.27 239.29,-64.76 241.09,-71.96 245.18,-69.27"/>
<text xml:space="preserve" text-anchor="middle" x="324.42" y="-235.97" font-family="Arial" font-size="9.00" fill="#59677b">below zero / invalid</text>
</g>
<!-- warning -->
<g id="node6" class="node">
<title>warning</title>
<path fill="#fff0e9" stroke="#b9c3d1" stroke-width="1.3" d="M215.2,-270.73C215.2,-270.73 64.9,-270.73 64.9,-270.73 58.9,-270.73 52.9,-264.73 52.9,-258.73 52.9,-258.73 52.9,-219.82 52.9,-219.82 52.9,-213.82 58.9,-207.82 64.9,-207.82 64.9,-207.82 215.2,-207.82 215.2,-207.82 221.2,-207.82 227.2,-213.82 227.2,-219.82 227.2,-219.82 227.2,-258.73 227.2,-258.73 227.2,-264.73 221.2,-270.73 215.2,-270.73"/>
<text xml:space="preserve" text-anchor="middle" x="140.05" y="-249.25" font-family="Arial" font-size="12.00" fill="#24334b">6 · UPDATE EPISODE</text>
<text xml:space="preserve" text-anchor="middle" x="140.05" y="-235" font-family="Arial" font-size="12.00" fill="#24334b">severity / recovery / review</text>
<text xml:space="preserve" text-anchor="middle" x="140.05" y="-220.75" font-family="Arial" font-size="12.00" fill="#24334b">inside the same transaction</text>
</g>
<!-- commit&#45;&gt;warning -->
<g id="edge6" class="edge">
<title>commit&#45;&gt;warning</title>
<path fill="none" stroke="#8491a4" stroke-width="1.15" d="M147.72,-311.33C146.65,-301.45 145.46,-290.36 144.33,-279.93"/>
<polygon fill="#8491a4" stroke="#8491a4" stroke-width="1.15" points="146.78,-279.8 143.59,-273.11 141.91,-280.33 146.78,-279.8"/>
</g>
<!-- revision -->
<g id="node7" class="node">
<title>revision</title>
<path fill="#fff3dc" stroke="#b9c3d1" stroke-width="1.3" d="M225.82,-166.82C225.82,-166.82 76.27,-166.82 76.27,-166.82 70.27,-166.82 64.27,-160.82 64.27,-154.82 64.27,-154.82 64.27,-115.91 64.27,-115.91 64.27,-109.91 70.27,-103.91 76.27,-103.91 76.27,-103.91 225.82,-103.91 225.82,-103.91 231.82,-103.91 237.82,-109.91 237.82,-115.91 237.82,-115.91 237.82,-154.82 237.82,-154.82 237.82,-160.82 231.82,-166.82 225.82,-166.82"/>
<text xml:space="preserve" text-anchor="middle" x="151.05" y="-145.34" font-family="Arial" font-size="12.00" fill="#24334b">7 · REVISE CACHE KEY</text>
<text xml:space="preserve" text-anchor="middle" x="151.05" y="-131.09" font-family="Arial" font-size="12.00" fill="#24334b">revision increment commits</text>
<text xml:space="preserve" text-anchor="middle" x="151.05" y="-116.84" font-family="Arial" font-size="12.00" fill="#24334b">with the inventory change</text>
</g>
<!-- warning&#45;&gt;revision -->
<g id="edge7" class="edge">
<title>warning&#45;&gt;revision</title>
<path fill="none" stroke="#8491a4" stroke-width="1.15" d="M143.38,-207.42C144.45,-197.54 145.64,-186.45 146.77,-176.02"/>
<polygon fill="#8491a4" stroke="#8491a4" stroke-width="1.15" points="149.19,-176.42 147.51,-169.2 144.32,-175.89 149.19,-176.42"/>
</g>
<!-- revision&#45;&gt;response -->
<g id="edge8" class="edge">
<title>revision&#45;&gt;response</title>
<path fill="none" stroke="#8491a4" stroke-width="1.15" d="M171.33,-103.51C178.16,-93.13 185.85,-81.43 193,-70.56"/>
<polygon fill="#8491a4" stroke="#8491a4" stroke-width="1.15" points="194.85,-72.2 196.65,-65.01 190.75,-69.51 194.85,-72.2"/>
</g>
</g>
</svg>
